 <svg version="1.0" xmlns="http://www.w3.org/2000/svg" width="300.000000pt" height="169.000000pt" viewBox="0 0 300.000000 169.000000" preserveAspectRatio="xMidYMid meet">  <g transform="translate(0.000000,169.000000) scale(0.100000,-0.100000)" fill="#ffc436" stroke="none"> <path d="M350 1295 c0 -11 11 -15 40 -15 l40 0 0 -435 0 -435 -40 0 c-29 0 -40 -4 -40 -15 0 -13 44 -15 339 -15 l338 0 7 68 c16 183 18 242 9 242 -6 0 -32 -38 -58 -85 -78 -139 -153 -195 -262 -195 l-43 0 0 435 0 434 65 3 c36 2 65 8 65 13 0 6 -85 11 -230 13 -200 2 -230 0 -230 -13z m300 -450 l0 -435 -95 0 -95 0 0 435 0 435 95 0 95 0 0 -435z m364 -312 c-3 -32 -7 -73 -10 -90 l-5 -33 -68 0 -68 0 46 49 c57 60 68 74 83 106 18 41 27 29 22 -32z"></path> <path d="M922 1295 c-133 -37 -202 -137 -202 -290 0 -182 92 -283 269 -293 135 -8 242 41 285 131 47 100 42 270 -11 356 -55 89 -210 133 -341 96z m128 -23 c30 -24 43 -139 37 -327 -5 -160 -16 -202 -53 -211 -74 -19 -88 17 -92 231 -4 212 2 270 33 301 29 29 45 30 75 6z m-117 -9 c4 -3 2 -12 -4 -19 -6 -8 -9 -96 -7 -253 3 -275 7 -265 -78 -208 -64 42 -93 109 -94 214 0 98 17 157 61 204 42 46 106 78 122 62z m233 -12 c85 -39 118 -115 112 -259 -3 -90 -6 -102 -36 -148 -32 -51 -92 -94 -130 -94 -19 0 -20 3 -11 29 12 34 8 447 -5 474 -11 23 16 22 70 -2z"></path> <path d="M1506 1288 c-3 -13 -7 -48 -11 -78 -3 -30 -8 -71 -12 -90 l-6 -35 52 57 c53 58 142 111 209 124 l32 7 0 -394 c0 -225 -4 -409 -10 -429 -6 -21 -21 -42 -37 -52 -27 -17 -24 -17 127 -17 150 0 154 0 128 16 -15 10 -32 31 -38 47 -6 18 -10 182 -10 429 l0 399 37 -7 c78 -14 188 -84 225 -143 11 -18 22 -31 24 -29 3 2 0 38 -6 78 -6 41 -13 89 -16 107 l-5 32 -339 0 -340 0 -4 -22z m153 -12 c-2 -3 -34 -25 -71 -49 -67 -45 -67 -45 -63 -19 1 15 3 37 4 50 1 20 6 22 68 22 36 0 64 -2 62 -4z m251 -398 c0 -222 2 -418 6 -435 l7 -33 -73 0 -72 0 8 33 c5 17 9 213 9 435 l0 402 58 0 57 0 0 -402z m254 393 c8 -12 16 -81 9 -81 -8 0 -68 43 -71 52 -2 4 -9 8 -16 8 -7 0 -21 7 -32 15 -17 13 -14 14 43 15 34 0 64 -4 67 -9z"></path> <path d="M2240 1050 c-96 -17 -182 -76 -220 -149 -44 -88 -50 -230 -13 -336 46 -138 216 -210 400 -172 119 26 183 84 217 197 21 69 21 210 0 279 -19 66 -78 132 -142 159 -54 23 -176 34 -242 22z m126 -46 c22 -33 33 -182 27 -374 -5 -162 -19 -212 -62 -218 -84 -12 -101 37 -100 292 1 278 13 326 85 326 25 0 38 -7 50 -26z m-151 -58 c-21 -92 -21 -393 0 -462 8 -27 15 -52 15 -56 0 -23 -98 14 -136 50 -61 57 -91 164 -81 285 8 91 45 168 103 209 35 25 101 50 112 43 2 -2 -4 -33 -13 -69z m295 36 c32 -19 52 -42 70 -77 23 -46 25 -61 25 -180 0 -141 -14 -193 -67 -242 -26 -25 -104 -62 -130 -63 -15 0 -16 4 -5 32 16 45 16 479 0 532 l-12 38 37 -7 c20 -3 57 -18 82 -33z"></path> <path d="M1326 923 c-3 -10 -8 -40 -12 -67 l-7 -50 34 39 c34 38 98 74 132 75 17 0 18 -14 15 -249 -3 -228 -5 -251 -22 -270 l-19 -21 89 0 c49 0 84 4 78 8 -30 20 -34 55 -34 291 0 210 2 241 15 241 31 0 91 -32 129 -68 21 -20 36 -30 33 -21 -3 9 -9 37 -12 63 l-7 46 -203 0 c-185 0 -204 -2 -209 -17z m230 -263 l1 -249 -24 1 -23 2 0 248 0 248 23 0 23 0 0 -250z"></path> </g> </svg> 